<svg width="34" height="32" viewBox="0 0 34 32" fill="none" xmlns="http://www.w3.org/2000/svg">
<path d="M33.5359 13.954C33.5089 14.445 33.4279 14.9327 33.2861 15.4067C32.9892 16.3819 32.4223 17.2788 31.6326 17.913C30.5494 18.7894 29.0443 19.0895 27.6878 18.9156C26.3886 18.7519 25.221 17.7732 24.4246 16.7673C24.3132 16.6275 24.0838 16.6411 23.9555 16.74C23.8172 16.8491 23.7733 17.0469 23.8644 17.2038C24.374 18.0767 25.1164 18.7724 26.0039 19.2396C26.6619 19.584 27.4043 19.7886 28.1467 19.8602C28.14 20.0205 28.14 20.1841 28.1332 20.3478C28.1163 20.7639 28.1197 21.1799 28.1163 21.5959C28.1096 22.4382 28.1028 23.2805 28.1028 24.1194C28.1028 25.7937 28.1028 27.468 28.0961 29.1424V31.5601C28.0556 31.5703 28.0151 31.5806 27.9746 31.5908C27.8464 31.6181 27.7182 31.6454 27.5899 31.6726C27.4718 31.6931 27.3571 31.7136 27.239 31.734C27.1883 31.7408 27.1344 31.7477 27.0837 31.7545C27.0837 31.7545 27.0792 31.7556 27.0702 31.7579C27.0331 31.7613 26.996 31.7681 26.9555 31.7749C26.1085 31.9148 25.2412 31.9148 24.3909 31.8227C23.5945 31.734 22.7475 31.6624 21.9916 31.3862C21.3605 31.1543 20.8138 30.6769 20.4494 30.1142C20.0546 29.5004 19.8386 28.7195 19.9365 27.9864C19.9635 27.7647 20.0951 26.9702 20.7295 26.3393C20.8712 26.1961 21.5157 25.7255 22.3931 25.5175C22.9533 25.3879 23.5303 25.3606 24.0939 25.2549C24.1816 25.2379 24.293 25.1867 24.2761 25.098C24.2626 25.0264 24.1749 25.0026 24.104 24.9957C23.9184 24.9787 23.7362 24.9685 23.5506 24.9685C23.4595 24.9651 23.3684 24.9685 23.2773 24.9685H23.2638C23.0917 24.9378 22.9196 24.9173 22.7475 24.9003C22.4134 24.8593 22.0827 24.8048 21.7553 24.7195C21.266 24.5899 20.7936 24.3956 20.3853 24.0887C19.9938 23.792 19.7002 23.4067 19.5012 22.9565C19.4067 22.7383 19.329 22.5166 19.2717 22.2916C19.2177 21.9744 19.1671 21.6232 19.1232 21.2276C19.1198 21.2208 19.1198 21.214 19.1198 21.2038C19.1097 21.0776 19.1063 20.948 19.103 20.8184C19.0996 20.6104 19.1266 20.3853 19.0692 20.1841C19.0557 20.1125 19.0321 20.0477 18.9916 19.9761C18.9309 19.8807 18.7891 19.8772 18.7284 19.9761C18.5934 20.208 18.6406 20.4945 18.6339 20.7502C18.6271 21.0094 18.6136 21.2651 18.5867 21.5243C18.5394 22.0017 18.428 22.4484 18.2357 22.8883C18.04 23.3385 17.743 23.7238 17.3516 24.0171C16.9432 24.324 16.4708 24.5217 15.9815 24.6513C15.6542 24.7366 15.3235 24.7911 14.9894 24.8286C14.8173 24.8491 14.6452 24.8696 14.4765 24.8969C14.3145 24.9241 14.1491 24.9344 13.9973 24.9992C13.9568 25.0162 13.9433 25.0537 13.9433 25.0946C13.9264 25.1833 14.0378 25.2344 14.1255 25.2515C14.6891 25.3572 15.2695 25.3845 15.8263 25.5141C16.6699 25.7153 17.301 26.1483 17.4899 26.3359C18.6946 27.5158 18.6339 29.5857 17.2807 30.6155C16.6328 31.11 15.8836 31.4169 15.1041 31.6317C14.7161 31.7408 13.869 31.9386 12.7352 31.9966H11.3078C10.7712 31.9727 10.2347 31.9045 9.72849 31.7204C9.8196 31.3691 9.86684 30.9906 9.89721 30.6087C9.93096 30.2097 9.94108 29.8073 9.96133 29.4322C10.0018 28.6445 10.0356 27.8602 10.0626 27.0759C10.1132 25.4186 10.1267 23.7579 10.1031 22.1006C10.0929 21.2617 10.0896 20.4194 9.99507 19.584C10.6936 19.335 11.3719 18.9736 11.9084 18.4552C12.0502 18.3188 12.1345 18.1893 12.2695 18.0119C12.3775 17.8755 12.4686 17.7221 12.5597 17.5686C12.6576 17.3947 12.4349 17.2379 12.2931 17.3606C12.1649 17.4731 12.0299 17.5823 11.8916 17.6778C11.8241 17.7255 11.7566 17.7698 11.6891 17.8142L11.6756 17.821C11.6756 17.821 11.6891 17.8176 11.6925 17.8176C11.6891 17.821 11.6756 17.8278 11.652 17.8346C11.6452 17.838 11.5609 17.896 11.5507 17.9028C11.5372 17.9096 11.5237 17.9199 11.5204 17.9233C11.5001 17.9369 11.4765 17.954 11.4529 17.9676C11.1627 18.1654 10.859 18.3529 10.5451 18.5098C10.4709 18.5473 10.3933 18.5814 10.3157 18.6189L10.2785 18.6326C10.2785 18.6326 10.2583 18.6428 10.2549 18.6462C10.2077 18.6633 10.1604 18.6837 10.1132 18.7008C9.94446 18.7656 9.77235 18.8235 9.60025 18.8713C9.43153 18.919 9.2628 18.9599 9.0907 18.994C9.00296 19.0111 8.91185 19.0281 8.82411 19.0418C8.80724 19.0418 8.79036 19.0418 8.77349 19.0486C8.72625 19.052 8.679 19.0588 8.63176 19.0656C8.27068 19.1032 7.90961 19.1134 7.54853 19.0929C7.46417 19.0895 7.37981 19.0827 7.29544 19.0725C7.25495 19.0691 7.21783 19.0656 7.17733 19.0622C7.15371 19.0588 7.13346 19.0554 7.10647 19.052H7.09297C6.91412 19.0213 6.73189 18.9872 6.55304 18.9463C6.18522 18.861 5.82414 18.7417 5.46982 18.5985C5.45294 18.5917 5.43945 18.5848 5.42257 18.578C5.41582 18.5746 5.40908 18.5712 5.40233 18.5712C5.39895 18.5712 5.39558 18.5678 5.38883 18.5678C5.35846 18.5541 5.32809 18.5371 5.30109 18.5269C5.21673 18.4859 5.12899 18.445 5.04463 18.4041C4.8759 18.3188 4.70717 18.2268 4.54519 18.1279C4.37984 18.0324 4.21786 17.9267 4.06263 17.8176C3.98839 17.7664 3.91415 17.7153 3.83992 17.6607C3.82304 17.6471 3.80279 17.6334 3.77917 17.6164C3.76568 17.6027 3.69481 17.5516 3.66781 17.5311C3.66444 17.5311 3.65432 17.5209 3.64757 17.5141C3.35398 17.2924 3.07727 17.0367 2.81743 16.7741C2.55759 16.5115 2.291 16.2148 2.05478 15.9079C2.05478 15.9045 2.04466 15.8943 2.03791 15.8875C2.03454 15.8841 2.03454 15.8807 2.03116 15.8772C2.00079 15.8397 1.9738 15.7988 1.94342 15.7613C1.88606 15.6795 1.82869 15.601 1.7747 15.5226C1.66334 15.3589 1.55873 15.1952 1.45749 15.0281C1.25502 14.694 1.07279 14.3495 0.907441 13.9915C0.870321 13.9096 0.833201 13.8244 0.796081 13.7425C0.789332 13.7289 0.785957 13.7187 0.782583 13.705C0.758961 13.6505 0.735339 13.5925 0.711717 13.5345C0.644227 13.3606 0.58011 13.1799 0.519369 13.0026C0.397885 12.6275 0.296649 12.2523 0.212286 11.867C0.175166 11.6829 0.14142 11.4953 0.11105 11.3078C0.100926 11.2566 0.0941769 11.2089 0.0874278 11.1611C0.0874278 11.1543 0.0840533 11.1475 0.0840533 11.1373C0.0840533 11.1373 0.0840533 11.1236 0.0806787 11.11C0.0806787 11.1066 0.0806787 11.1032 0.0773042 11.0895C0.0671806 10.9974 0.057057 10.9088 0.0469334 10.8201C-0.0273065 10.0426 -0.0138083 9.26855 0.0773042 8.49105C0.0773042 8.47741 0.0806787 8.46036 0.0840533 8.44331C0.0908024 8.39898 0.0941769 8.35806 0.104301 8.31373C0.117799 8.21143 0.134671 8.10913 0.154919 8.01023C0.188664 7.82609 0.229158 7.64536 0.276402 7.46803C0.360765 7.1168 0.468751 6.76897 0.593609 6.42797C0.623979 6.3393 0.657725 6.25405 0.69147 6.1688C0.704968 6.13129 0.721841 6.09378 0.735339 6.05627C0.738714 6.04604 0.752212 6.01876 0.755587 6.01194C0.758961 6.00512 0.758961 6.00171 0.758961 6.00171C0.833201 5.8312 0.910815 5.66411 0.991804 5.50043C1.15041 5.17306 1.32926 4.85593 1.52161 4.54902C1.61947 4.39216 1.7207 4.24212 1.82869 4.08866C1.87931 4.02046 1.92993 3.94885 1.98054 3.88065C2.00417 3.84655 2.03116 3.81586 2.05478 3.78176C2.06828 3.7613 2.08515 3.74084 2.09865 3.72379C2.32475 3.43734 2.56096 3.16454 2.81406 2.90537C3.07052 2.6428 3.34048 2.39045 3.62057 2.15516C3.68806 2.1006 3.75555 2.04604 3.82304 1.99489C3.82304 1.98807 3.83317 1.98466 3.83992 1.97784C3.88716 1.94374 3.93103 1.90964 3.97827 1.87554C4.12 1.76982 4.26848 1.66752 4.41359 1.56863C4.72742 1.36403 5.05475 1.17306 5.38883 1.00597C5.56093 0.917309 5.73978 0.821827 5.922 0.753626C5.94225 0.743396 5.97262 0.733166 5.98612 0.729756C6.02999 0.709295 6.07723 0.692245 6.12448 0.671785C6.21896 0.637684 6.31345 0.603583 6.40794 0.569483C6.78589 0.43308 7.17058 0.323958 7.56203 0.235297C7.75101 0.190966 7.94335 0.153455 8.1357 0.122765C8.22007 0.105715 8.3078 0.102305 8.39217 0.0818442C8.38879 0.0818442 8.38542 0.0818442 8.38542 0.0852543C8.41241 0.0818442 8.44616 0.0750241 8.45966 0.071614C8.51702 0.0647939 8.57439 0.0579738 8.62838 0.0545638C9.4214 -0.0306877 10.2212 -0.0238676 11.0108 0.0750241C11.0277 0.0750241 11.0412 0.0784342 11.0581 0.0784342C11.1019 0.0852543 11.1424 0.0920744 11.1829 0.0988945C11.2909 0.115945 11.3955 0.132995 11.5001 0.153455C11.6958 0.190966 11.8916 0.231887 12.0873 0.283038C12.4686 0.378519 12.8466 0.497872 13.2144 0.637684C13.2987 0.671785 13.3831 0.705885 13.4708 0.739986C13.4843 0.746806 13.4978 0.753626 13.5113 0.760446L13.6632 0.828647C13.8387 0.907079 14.0108 0.99574 14.1795 1.0844C14.5271 1.27537 14.8612 1.48679 15.1784 1.72208C15.2155 1.74936 15.2526 1.78005 15.2897 1.80733C15.2998 1.81415 15.3066 1.82097 15.3133 1.8278C15.3977 1.89259 15.4753 1.96079 15.5563 2.02899C15.7048 2.15857 15.8465 2.29497 15.9849 2.4382C16.1165 2.5746 16.2447 2.71782 16.3628 2.86786C16.3797 2.88832 16.3966 2.90878 16.4101 2.92583C16.4168 2.93606 16.4303 2.95311 16.4404 2.96334C16.4539 2.9838 16.4674 3.00086 16.4708 3.00768C16.4944 3.03837 16.5147 3.06906 16.5349 3.09975C16.815 3.45098 17.0479 3.81927 17.2368 4.20461C17.4528 4.63768 17.5945 5.06735 17.7059 5.54135C17.7869 5.88236 17.7059 6.60188 18.094 6.78602C18.3099 6.88832 18.4449 6.6428 18.4618 6.46207C18.4989 6.04604 18.4517 5.6266 18.4179 5.21739C18.3977 4.98551 18.3639 4.75022 18.3201 4.52174C18.2796 4.31714 18.1986 4.12277 18.148 3.92157C18.1243 3.83291 18.094 3.74084 18.067 3.65218C18.0433 3.58739 18.0231 3.526 17.9961 3.46462C17.9927 3.46462 17.9927 3.45439 17.9927 3.45098C17.9894 3.44757 17.9894 3.44416 17.9894 3.44075C17.9792 3.41006 17.9657 3.38278 17.9556 3.35209C17.8611 3.12362 17.7599 2.90878 17.6249 2.70077C17.581 2.63257 17.5304 2.56437 17.4832 2.49617C17.5169 2.48935 17.554 2.48594 17.5878 2.47912C17.5979 2.47912 17.6249 2.4723 17.6384 2.4723C17.662 2.46889 17.6823 2.46548 17.7059 2.46207C17.8274 2.44843 17.9455 2.43138 18.067 2.41092C18.0973 2.40751 18.1277 2.4041 18.1581 2.39727C18.1615 2.39727 18.1682 2.39727 18.175 2.39386C18.2256 2.38704 18.2762 2.38363 18.3234 2.37681C18.5327 2.35635 18.7419 2.34271 18.9511 2.3393C19.1671 2.33589 19.3864 2.34271 19.599 2.35976C19.7002 2.36999 19.7981 2.37681 19.896 2.38704C19.9466 2.39386 19.9938 2.39727 20.0445 2.4041C20.0647 2.40751 20.0782 2.40751 20.0821 2.40751C20.1023 2.41092 20.1254 2.41774 20.1457 2.42115C20.5608 2.48594 20.9691 2.58824 21.3639 2.73146C21.4584 2.76556 21.5495 2.79966 21.6406 2.83717C21.6507 2.84058 21.6609 2.8474 21.671 2.85081C21.6811 2.85422 21.7081 2.86786 21.7182 2.87127C21.7688 2.89514 21.8195 2.91901 21.8701 2.94288C22.059 3.03155 22.2413 3.13044 22.4201 3.23956C22.5922 3.34186 22.7576 3.45098 22.9162 3.57034C22.9533 3.59762 22.9904 3.6249 23.0275 3.65218C23.041 3.66582 23.0545 3.67264 23.068 3.68628C23.149 3.75107 23.2266 3.81586 23.3009 3.88406C23.5978 4.14323 23.8678 4.42967 24.1141 4.73999C24.1344 4.76386 24.1614 4.78773 24.1783 4.81842C24.1783 4.82183 24.185 4.82865 24.1884 4.83547C24.2019 4.85252 24.2154 4.86957 24.2289 4.89003C24.2896 4.97187 24.3504 5.05712 24.4077 5.14237C24.5123 5.30265 24.617 5.46974 24.7081 5.64024C24.816 5.83121 24.9105 6.02558 24.9983 6.22677C25.005 6.24382 25.0151 6.26087 25.0219 6.28133C25.0276 6.29156 25.0276 6.29838 25.032 6.3052C25.0489 6.35294 25.0691 6.40068 25.086 6.44843C25.1265 6.55073 25.1636 6.65303 25.194 6.75533C25.2649 6.96675 25.3222 7.185 25.3695 7.40324C25.3931 7.50895 25.4133 7.61467 25.4302 7.72379C25.4336 7.74084 25.437 7.75789 25.437 7.77835C25.1434 7.92498 24.8565 8.09207 24.5832 8.27281C23.5405 8.97187 22.6631 9.87895 22.1738 11.0554C22.1468 11.1236 22.1198 11.1986 22.1468 11.2634C22.1805 11.3555 22.302 11.3862 22.3931 11.3555C22.4842 11.3214 22.5551 11.2464 22.6192 11.1748C23.8408 9.84144 25.3627 8.73658 27.1074 8.28986C28.1062 8.0341 29.1793 8.00341 30.1546 8.3376C32.4324 9.1185 33.6506 11.6283 33.5359 13.9506V13.954Z" fill="#FAF0E6"/>
</svg>