<svg width="34" height="32" viewBox="0 0 34 32" fill="none" xmlns="http://www.w3.org/2000/svg">
<path d="M33.5363 13.954C33.5093 14.4451 33.4284 14.9327 33.2866 15.4067C32.9897 16.382 32.4227 17.2788 31.6331 17.9131C30.5499 18.7895 29.0448 19.0896 27.6883 18.9157C26.3891 18.752 25.2215 17.7733 24.4251 16.7673C24.3137 16.6275 24.0843 16.6412 23.956 16.74C23.8177 16.8492 23.7738 17.047 23.8649 17.2038C24.3745 18.0768 25.1169 18.7724 26.0044 19.2396C26.6624 19.584 27.4048 19.7886 28.1472 19.8603C28.1405 20.0205 28.1405 20.1842 28.1337 20.3479C28.1168 20.7639 28.1202 21.1799 28.1168 21.596C28.1101 22.4383 28.1033 23.2805 28.1033 24.1194C28.1033 25.7938 28.1033 27.4681 28.0966 29.1424V31.5602C28.0561 31.5704 28.0156 31.5806 27.9751 31.5909C27.8469 31.6181 27.7186 31.6454 27.5904 31.6727C27.4723 31.6932 27.3576 31.7136 27.2395 31.7341C27.1888 31.7409 27.1348 31.7477 27.0842 31.7545C27.0842 31.7545 27.0797 31.7557 27.0707 31.7579C27.0336 31.7614 26.9965 31.7682 26.956 31.775C26.109 31.9148 25.2417 31.9148 24.3913 31.8227C23.5949 31.7341 22.7479 31.6625 21.992 31.3863C21.361 31.1544 20.8143 30.677 20.4499 30.1143C20.0551 29.5005 19.8391 28.7196 19.937 27.9864C19.9639 27.7648 20.0956 26.9702 20.73 26.3394C20.8717 26.1961 21.5162 25.7256 22.3936 25.5175C22.9538 25.388 23.5308 25.3607 24.0944 25.255C24.1821 25.2379 24.2935 25.1868 24.2766 25.0981C24.2631 25.0265 24.1754 25.0026 24.1045 24.9958C23.9189 24.9788 23.7367 24.9685 23.5511 24.9685C23.46 24.9651 23.3689 24.9685 23.2777 24.9685H23.2642C23.0921 24.9378 22.92 24.9174 22.7479 24.9003C22.4139 24.8594 22.0832 24.8048 21.7558 24.7196C21.2665 24.59 20.7941 24.3956 20.3858 24.0887C19.9943 23.7921 19.7007 23.4067 19.5016 22.9566C19.4071 22.7383 19.3295 22.5167 19.2722 22.2916C19.2182 21.9745 19.1676 21.6233 19.1237 21.2277C19.1203 21.2209 19.1203 21.214 19.1203 21.2038C19.1102 21.0776 19.1068 20.9481 19.1034 20.8185C19.1001 20.6105 19.1271 20.3854 19.0697 20.1842C19.0562 20.1126 19.0326 20.0478 18.9921 19.9762C18.9313 19.8807 18.7896 19.8773 18.7289 19.9762C18.5939 20.2081 18.6411 20.4945 18.6344 20.7503C18.6276 21.0094 18.6141 21.2652 18.5871 21.5244C18.5399 22.0018 18.4285 22.4485 18.2362 22.8884C18.0405 23.3385 17.7435 23.7239 17.3521 24.0171C16.9437 24.324 16.4713 24.5218 15.982 24.6514C15.6547 24.7366 15.324 24.7912 14.9899 24.8287C14.8178 24.8492 14.6457 24.8696 14.4769 24.8969C14.315 24.9242 14.1496 24.9344 13.9978 24.9992C13.9573 25.0163 13.9438 25.0538 13.9438 25.0947C13.9269 25.1834 14.0383 25.2345 14.126 25.2516C14.6895 25.3573 15.27 25.3845 15.8268 25.5141C16.6704 25.7153 17.3014 26.1484 17.4904 26.336C18.6951 27.5158 18.6344 29.5857 17.2812 30.6156C16.6333 31.11 15.8841 31.4169 15.1046 31.6318C14.7165 31.7409 13.8695 31.9387 12.7357 31.9967H11.3083C10.7717 31.9728 10.2352 31.9046 9.72897 31.7204C9.82008 31.3692 9.86733 30.9907 9.8977 30.6088C9.93144 30.2098 9.94157 29.8074 9.96181 29.4323C10.0023 28.6446 10.0361 27.8603 10.0631 27.0759C10.1137 25.4186 10.1272 23.7579 10.1035 22.1007C10.0934 21.2618 10.09 20.4195 9.99556 19.584C10.6941 19.3351 11.3724 18.9736 11.9089 18.4553C12.0507 18.3189 12.135 18.1893 12.27 18.012C12.378 17.8756 12.4691 17.7221 12.5602 17.5687C12.6581 17.3948 12.4354 17.2379 12.2936 17.3607C12.1654 17.4732 12.0304 17.5823 11.8921 17.6778C11.8246 17.7256 11.7571 17.7699 11.6896 17.8142L11.6761 17.821C11.6761 17.821 11.6896 17.8176 11.693 17.8176C11.6896 17.821 11.6761 17.8279 11.6525 17.8347C11.6457 17.8381 11.5613 17.8961 11.5512 17.9029C11.5377 17.9097 11.5242 17.9199 11.5209 17.9233C11.5006 17.937 11.477 17.954 11.4534 17.9677C11.1631 18.1655 10.8594 18.353 10.5456 18.5099C10.4714 18.5474 10.3938 18.5815 10.3161 18.619L10.279 18.6326C10.279 18.6326 10.2588 18.6429 10.2554 18.6463C10.2082 18.6633 10.1609 18.6838 10.1137 18.7008C9.94494 18.7656 9.77284 18.8236 9.60074 18.8713C9.43201 18.9191 9.26329 18.96 9.09118 18.9941C9.00345 19.0111 8.91233 19.0282 8.82459 19.0418C8.80772 19.0418 8.79085 19.0418 8.77398 19.0487C8.72673 19.0521 8.67949 19.0589 8.63225 19.0657C8.27117 19.1032 7.9101 19.1134 7.54902 19.093C7.46466 19.0896 7.38029 19.0828 7.29593 19.0725C7.25543 19.0691 7.21832 19.0657 7.17782 19.0623C7.1542 19.0589 7.13395 19.0555 7.10696 19.0521H7.09346C6.91461 19.0214 6.73238 18.9873 6.55353 18.9464C6.18571 18.8611 5.82463 18.7418 5.4703 18.5985C5.45343 18.5917 5.43993 18.5849 5.42306 18.5781C5.41631 18.5747 5.40956 18.5712 5.40281 18.5712C5.39944 18.5712 5.39606 18.5678 5.38932 18.5678C5.35894 18.5542 5.32857 18.5371 5.30158 18.5269C5.21721 18.486 5.12948 18.4451 5.04511 18.4042C4.87639 18.3189 4.70766 18.2268 4.54568 18.1279C4.38033 18.0325 4.21835 17.9267 4.06312 17.8176C3.98888 17.7665 3.91464 17.7153 3.8404 17.6608C3.82353 17.6471 3.80328 17.6335 3.77966 17.6164C3.76616 17.6028 3.6953 17.5516 3.6683 17.5312C3.66493 17.5312 3.6548 17.521 3.64805 17.5141C3.35447 17.2925 3.07776 17.0367 2.81792 16.7741C2.55808 16.5116 2.29149 16.2149 2.05527 15.908C2.05527 15.9046 2.04515 15.8944 2.0384 15.8875C2.03502 15.8841 2.03502 15.8807 2.03165 15.8773C2.00128 15.8398 1.97428 15.7989 1.94391 15.7614C1.88654 15.6795 1.82918 15.6011 1.77519 15.5227C1.66383 15.359 1.55921 15.1953 1.45798 15.0282C1.25551 14.694 1.07328 14.3496 0.907929 13.9915C0.870809 13.9097 0.833689 13.8244 0.796569 13.7426C0.78982 13.729 0.786445 13.7187 0.783071 13.7051C0.759449 13.6505 0.735827 13.5926 0.712206 13.5346C0.644715 13.3607 0.580599 13.1799 0.519857 13.0026C0.398374 12.6275 0.297137 12.2524 0.212774 11.8671C0.175654 11.6829 0.141909 11.4954 0.111538 11.3078C0.101414 11.2567 0.0946652 11.2089 0.0879161 11.1612C0.0879161 11.1544 0.0845416 11.1475 0.0845416 11.1373C0.0845416 11.1373 0.0845415 11.1237 0.081167 11.11C0.081167 11.1066 0.081167 11.1032 0.0777925 11.0896C0.0676689 10.9975 0.0575452 10.9088 0.0474216 10.8202C-0.0268182 10.0427 -0.0133201 9.26861 0.0777925 8.49111C0.0777925 8.47747 0.081167 8.46042 0.0845416 8.44337C0.0912906 8.39904 0.0946652 8.35812 0.104789 8.31379C0.118287 8.21149 0.13516 8.10919 0.155407 8.01029C0.189152 7.82615 0.229647 7.64542 0.27689 7.46809C0.361254 7.11686 0.469239 6.76903 0.594097 6.42803C0.624468 6.33937 0.658213 6.25411 0.691958 6.16886C0.705457 6.13135 0.722329 6.09384 0.735827 6.05633C0.739202 6.0461 0.7527 6.01882 0.756075 6.012C0.759449 6.00518 0.759449 6.00177 0.759449 6.00177C0.833689 5.83127 0.911303 5.66417 0.992292 5.50049C1.1509 5.17312 1.32975 4.85599 1.52209 4.54908C1.61996 4.39222 1.72119 4.24218 1.82918 4.08873C1.8798 4.02052 1.93041 3.94891 1.98103 3.88071C2.00465 3.84661 2.03165 3.81592 2.05527 3.78182C2.06877 3.76136 2.08564 3.7409 2.09914 3.72385C2.32523 3.4374 2.56145 3.1646 2.81454 2.90543C3.07101 2.64286 3.34097 2.39052 3.62106 2.15522C3.68855 2.10066 3.75604 2.0461 3.82353 1.99495C3.82353 1.98813 3.83365 1.98472 3.8404 1.9779C3.88765 1.9438 3.93152 1.9097 3.97876 1.8756C4.12049 1.76988 4.26897 1.66758 4.41407 1.56869C4.72791 1.36409 5.05524 1.17312 5.38932 1.00603C5.56142 0.91737 5.74027 0.821888 5.92249 0.753687C5.94274 0.743457 5.97311 0.733227 5.98661 0.729817C6.03048 0.709356 6.07772 0.692306 6.12496 0.671846C6.21945 0.637745 6.31394 0.603644 6.40843 0.569544C6.78637 0.433141 7.17107 0.32402 7.56252 0.235358C7.75149 0.191027 7.94384 0.153517 8.13619 0.122826C8.22055 0.105776 8.30829 0.102366 8.39265 0.0819053C8.38928 0.0819053 8.38591 0.0819053 8.38591 0.0853153C8.4129 0.0819053 8.44665 0.0750851 8.46014 0.0716751C8.51751 0.064855 8.57488 0.0580348 8.62887 0.0546248C9.42189 -0.0306267 10.2217 -0.0238066 11.0113 0.0750851C11.0282 0.0750851 11.0417 0.0784952 11.0585 0.0784952C11.1024 0.0853153 11.1429 0.0921354 11.1834 0.0989556C11.2914 0.116006 11.396 0.133056 11.5006 0.153517C11.6963 0.191027 11.8921 0.231948 12.0878 0.283099C12.4691 0.37858 12.847 0.497933 13.2149 0.637745C13.2992 0.671846 13.3836 0.705946 13.4713 0.740047C13.4848 0.746867 13.4983 0.753687 13.5118 0.760507L13.6637 0.828708C13.8392 0.90714 14.0113 0.995801 14.18 1.08446C14.5276 1.27543 14.8616 1.48685 15.1789 1.72214C15.216 1.74942 15.2531 1.78012 15.2902 1.8074C15.3003 1.81422 15.3071 1.82104 15.3138 1.82786C15.3982 1.89265 15.4758 1.96085 15.5568 2.02905C15.7053 2.15863 15.847 2.29503 15.9854 2.43826C16.117 2.57466 16.2452 2.71788 16.3633 2.86792C16.3802 2.88838 16.3971 2.90884 16.4106 2.92589C16.4173 2.93613 16.4308 2.95318 16.4409 2.96341C16.4544 2.98387 16.4679 3.00092 16.4713 3.00774C16.4949 3.03843 16.5152 3.06912 16.5354 3.09981C16.8155 3.45104 17.0483 3.81933 17.2373 4.20467C17.4533 4.63774 17.595 5.06741 17.7064 5.54141C17.7874 5.88242 17.7064 6.60194 18.0945 6.78608C18.3104 6.88838 18.4454 6.64286 18.4623 6.46213C18.4994 6.0461 18.4522 5.62666 18.4184 5.21746C18.3982 4.98557 18.3644 4.75028 18.3205 4.5218C18.2801 4.3172 18.1991 4.12283 18.1484 3.92163C18.1248 3.83297 18.0945 3.7409 18.0675 3.65224C18.0438 3.58745 18.0236 3.52607 17.9966 3.46468C17.9932 3.46468 17.9932 3.45445 17.9932 3.45104C17.9898 3.44763 17.9898 3.44422 17.9898 3.44081C17.9797 3.41012 17.9662 3.38284 17.9561 3.35215C17.8616 3.12368 17.7604 2.90884 17.6254 2.70083C17.5815 2.63263 17.5309 2.56443 17.4837 2.49623C17.5174 2.48941 17.5545 2.486 17.5883 2.47918C17.5984 2.47918 17.6254 2.47236 17.6389 2.47236C17.6625 2.46895 17.6828 2.46554 17.7064 2.46213C17.8279 2.44849 17.946 2.43144 18.0675 2.41098C18.0978 2.40757 18.1282 2.40416 18.1586 2.39734C18.1619 2.39734 18.1687 2.39734 18.1754 2.39393C18.2261 2.38711 18.2767 2.3837 18.3239 2.37688C18.5331 2.35642 18.7424 2.34278 18.9516 2.33937C19.1676 2.33595 19.3869 2.34278 19.5995 2.35983C19.7007 2.37006 19.7986 2.37688 19.8965 2.38711C19.9471 2.39393 19.9943 2.39734 20.0449 2.40416C20.0652 2.40757 20.0787 2.40757 20.0821 2.40757C20.1023 2.41098 20.1259 2.4178 20.1462 2.42121C20.5612 2.486 20.9696 2.5883 21.3644 2.73152C21.4589 2.76562 21.55 2.79972 21.6411 2.83723C21.6512 2.84064 21.6613 2.84746 21.6715 2.85087C21.6816 2.85428 21.7086 2.86792 21.7187 2.87133C21.7693 2.8952 21.8199 2.91908 21.8706 2.94295C22.0595 3.03161 22.2418 3.1305 22.4206 3.23962C22.5927 3.34192 22.7581 3.45104 22.9167 3.5704C22.9538 3.59768 22.9909 3.62496 23.028 3.65224C23.0415 3.66588 23.055 3.6727 23.0685 3.68634C23.1495 3.75113 23.2271 3.81592 23.3014 3.88412C23.5983 4.14329 23.8683 4.42973 24.1146 4.74005C24.1349 4.76392 24.1619 4.78779 24.1787 4.81848C24.1787 4.82189 24.1855 4.82871 24.1889 4.83553C24.2024 4.85258 24.2159 4.86963 24.2294 4.89009C24.2901 4.97193 24.3508 5.05718 24.4082 5.14243C24.5128 5.30271 24.6174 5.4698 24.7085 5.6403C24.8165 5.83127 24.911 6.02564 24.9988 6.22683C25.0055 6.24388 25.0156 6.26093 25.0224 6.28139C25.0291 6.29162 25.0291 6.29844 25.0325 6.30526C25.0494 6.353 25.0696 6.40075 25.0865 6.44849C25.127 6.55079 25.1641 6.65309 25.1945 6.75539C25.2653 6.96682 25.3227 7.18506 25.37 7.4033C25.3936 7.50902 25.4138 7.61473 25.4307 7.72385C25.4341 7.7409 25.4374 7.75795 25.4374 7.77841C25.1439 7.92504 24.857 8.09214 24.5837 8.27287C23.541 8.97193 22.6636 9.87901 22.1743 11.0555C22.1473 11.1237 22.1203 11.1987 22.1473 11.2635C22.181 11.3556 22.3025 11.3863 22.3936 11.3556C22.4847 11.3215 22.5556 11.2464 22.6197 11.1748C23.8413 9.8415 25.3632 8.73664 27.1078 8.28992C28.1067 8.03416 29.1798 8.00347 30.1551 8.33766C32.4329 9.11856 33.6511 11.6284 33.5363 13.9506V13.954Z" fill="#396039"/>
</svg>